# xmcd
#
# Track frame offsets: 
#        182
#        17010
#        31680
#        46310
#        73085
#        96490
#        122737
#
# Disc length: 2002 seconds
#
# Revision: 0
# Processed by: cddbd v1.5.2PL0 Copyright (c) Steve Scherf et al.
# Submitted via: ExactAudioCopy v0.95b4
#
DISCID=5707d007
DTITLE=Future Pop - When the rain begins to fall
DYEAR=2002
DGENRE=
TTITLE0=future pop video cut
TTITLE1=karsten kiessling radio mix
TTITLE2=go and drez radio mix
TTITLE3=future pop club mix
TTITLE4=go $ drez club mix
TTITLE5=karsten kiessling club mix
TTITLE6=future pop instrumental mix
EXTD=
EXTT0=
EXTT1=
EXTT2=
EXTT3=
EXTT4=
EXTT5=
EXTT6=
PLAYORDER=
